<?xml version="1.0" encoding="UTF-8" standalone="no"?>
<svg
   xmlns:dc="http://purl.org/dc/elements/1.1/"
   xmlns:cc="http://creativecommons.org/ns#"
   xmlns:rdf="http://www.w3.org/1999/02/22-rdf-syntax-ns#"
   xmlns:svg="http://www.w3.org/2000/svg"
   xmlns="http://www.w3.org/2000/svg"
   viewBox="0 0 330.01334 112.54667"
   height="112.54667"
   width="330.01334"
   xml:space="preserve"
   id="svg2"
   version="1.1"><metadata
     id="metadata8"><rdf:RDF><cc:Work
         rdf:about=""><dc:format>image/svg+xml</dc:format><dc:type
           rdf:resource="http://purl.org/dc/dcmitype/StillImage" /></cc:Work></rdf:RDF></metadata><defs
     id="defs6" /><g
     transform="matrix(1.3333333,0,0,-1.3333333,0,112.54667)"
     id="g10"><g
       transform="scale(0.1)"
       id="g12"><path
         id="path14"
         style="fill:#122c22;fill-opacity:1;fill-rule:nonzero;stroke:none"
         d="M 206.266,350.484 V 527.09 H 129.547 V 350.484 H 0 V 832.516 H 129.547 V 637.102 l 76.719,-0.008 V 832.516 H 335.813 V 350.484 H 206.266" /><path
         id="path16"
         style="fill:#122c22;fill-opacity:1;fill-rule:nonzero;stroke:none"
         d="m 655.102,712.363 c 0,15.918 -13.75,25.332 -28.954,25.332 -15.195,0 -29.671,-9.414 -29.671,-25.332 V 470.637 c 0,-15.93 14.476,-25.344 29.671,-25.344 15.204,0 28.954,9.414 28.954,25.344 z M 626.148,338.188 c -91.91,0 -162.125,56.445 -162.125,139.683 v 227.262 c 0,83.226 70.215,138.961 162.125,138.961 91.192,0 161.399,-55.735 161.399,-138.973 V 477.852 c 0,-83.219 -70.207,-139.664 -161.399,-139.664" /><path
         id="path18"
         style="fill:#122c22;fill-opacity:1;fill-rule:nonzero;stroke:none"
         d="m 1140.12,350.484 -75.26,157.055 -33.3,69.484 V 350.484 H 915.766 v 482.02 h 112.174 l 72.37,-161.395 31.14,-69.484 v 230.879 h 115.07 v -482.02 h -106.4" /><path
         id="path20"
         style="fill:#122c22;fill-opacity:1;fill-rule:nonzero;stroke:none"
         d="m 1378.34,350.484 v 482.02 h 275.74 V 727.555 h -146.19 v -84.68 h 94.82 V 551.68 h -94.82 v -89.735 l 146.19,-0.011 V 350.465 l -275.74,0.019" /><path
         id="path22"
         style="fill:#122c22;fill-opacity:1;fill-rule:nonzero;stroke:none"
         d="m 1920.62,338.16 c -98.44,0 -157.77,51.387 -157.77,137.524 v 26.054 h 112.89 v -23.152 c 0,-23.156 14.49,-39.816 39.1,-39.816 24.59,0 36.19,13.75 36.19,39.082 0,29.668 -35.47,50.664 -75.29,75.996 -51.37,31.851 -109.28,70.929 -109.28,141.859 0,75.266 53.56,148.371 157.78,148.371 85.41,0 144.04,-61.523 144.04,-136.793 v -20.269 h -112.91 v 22.441 c 0,20.992 -13.75,34.02 -31.13,34.02 -16.65,0 -34.01,-11.582 -34.01,-34.747 0,-29.667 35.45,-49.929 75.27,-75.261 51.37,-32.574 110,-72.379 110,-146.211 0,-75.985 -55,-149.098 -154.88,-149.098" /><path
         id="path24"
         style="fill:#122c22;fill-opacity:1;fill-rule:nonzero;stroke:none"
         d="M 2383.92,725.383 V 350.465 h -129.55 v 374.918 h -90.47 v 107.113 h 311.21 V 725.383 h -91.19" /><path
         id="path26"
         style="fill:#122c22;fill-opacity:1;fill-rule:nonzero;stroke:none"
         d="M 666.773,64.6133 H 647.805 V 19.6719 h 19.984 c 11.09,0 18.617,0.8594 22.57,2.5898 3.954,1.7266 7.133,4.4219 9.536,8.0664 2.398,3.6524 3.601,7.5664 3.601,11.7657 0,4.3281 -1.273,8.2812 -3.801,11.8671 -2.539,3.5821 -6.136,6.2579 -10.804,8.0157 -4.668,1.7578 -12.043,2.6367 -22.118,2.6367 z M 665.25,125.27 H 647.805 V 82.6602 h 13.492 c 10.82,0 18.512,2.082 23.082,6.1914 4.559,4.1328 6.84,9.4726 6.84,16.0274 0,13.601 -8.656,20.391 -25.969,20.391 z M 675.5,1.625 h -47.98 v 141.711 h 37.125 c 11.699,0 20.832,-1.582 27.386,-4.719 6.559,-3.152 11.567,-7.48 15.016,-12.988 3.441,-5.516 5.172,-11.883 5.172,-19.121 0,-13.9338 -7.203,-23.8947 -21.606,-29.9299 10.348,-1.9531 18.578,-6.2109 24.7,-12.7734 6.121,-6.5625 9.179,-14.4063 9.179,-23.5352 0,-7.2382 -1.863,-13.6914 -5.578,-19.375 C 715.191,15.2109 709.734,10.582 702.531,6.99609 695.328,3.41406 686.32,1.625 675.5,1.625" /><path
         id="path28"
         style="fill:#122c22;fill-opacity:1;fill-rule:nonzero;stroke:none"
         d="m 905.398,143.336 h 20.383 V 62.8867 c 0,-10.8789 -0.789,-19.1015 -2.375,-24.6406 -1.593,-5.5469 -3.551,-10.1641 -5.89,-13.8555 -2.328,-3.6836 -5.184,-6.9843 -8.571,-9.8828 -11.222,-9.67967 -25.894,-14.51170625 -44.019,-14.51170625 -18.465,0 -33.274,4.80468625 -44.43,14.40230625 -3.387,2.9688 -6.234,6.3086 -8.574,9.9922 -2.336,3.6914 -4.266,8.2032 -5.781,13.543 -1.524,5.3516 -2.282,13.7227 -2.282,25.1562 v 80.2462 h 20.387 V 62.8867 c 0,-13.3203 1.524,-22.5781 4.567,-27.7929 3.042,-5.2071 7.671,-9.375 13.898,-12.5196 6.219,-3.1562 13.551,-4.7187 22.008,-4.7187 12.035,0 21.844,3.1445 29.418,9.4336 3.992,3.3711 6.867,7.3632 8.621,11.9648 1.762,4.5977 2.64,12.4688 2.64,23.6328 v 80.4493" /><path
         id="path30"
         style="fill:#122c22;fill-opacity:1;fill-rule:nonzero;stroke:none"
         d="m 1043.19,126.09 h -6.08 V 81.3516 h 7.7 c 10.28,0 17.33,0.8789 21.15,2.6367 3.83,1.7578 6.8,4.414 8.93,7.9609 2.13,3.5547 3.2,7.5977 3.2,12.1288 0,4.461 -1.19,8.504 -3.55,12.117 -2.38,3.625 -5.71,6.172 -10,7.657 -4.29,1.484 -11.41,2.238 -21.35,2.238 z M 1016.81,1.625 v 141.711 h 35.51 c 14.34,0 25.71,-3.555 34.13,-10.656 8.42,-7.098 12.63,-16.707 12.63,-28.809 0,-8.2499 -2.06,-15.3788 -6.19,-21.4062 -4.12,-6.0156 -10.04,-10.5078 -17.75,-13.496 4.53,-2.9688 8.96,-7.0196 13.29,-12.168 4.33,-5.1445 10.41,-14.0899 18.26,-26.875 4.93,-8.0547 8.89,-14.1094 11.87,-18.1524 l 7.5,-10.1484 h -24.13 l -6.19,9.3359 c -0.2,0.3321 -0.6,0.9102 -1.21,1.7305 l -3.96,5.5742 -6.28,10.3438 -6.78,11.0742 c -4.19,5.8203 -8.03,10.4492 -11.52,13.8867 -3.48,3.4453 -6.63,5.9258 -9.44,7.4414 -2.81,1.5235 -7.53,2.2735 -14.17,2.2735 h -5.27 V 1.625 h -20.3" /><path
         id="path32"
         style="fill:#122c22;fill-opacity:1;fill-rule:nonzero;stroke:none"
         d="m 1272.58,71.4102 h 47.57 V 11.3516 c -17.44,-7.56644 -34.77,-11.35550625 -51.93,-11.35550625 -23.48,0 -42.22,6.84374625 -56.25,20.53520625 -14.04,13.7109 -21.05,30.5859 -21.05,50.6757 0,21.1719 7.27,38.777 21.81,52.852 14.53,14.062 32.77,21.093 54.67,21.093 7.97,0 15.56,-0.851 22.72,-2.578 7.16,-1.73 16.22,-4.894 27.18,-9.492 v -20.684 c -16.89,9.805 -33.67,14.696 -50.3,14.696 -15.49,0 -28.55,-5.262 -39.16,-15.821 -10.62,-10.546 -15.92,-23.4957 -15.92,-38.8472 0,-16.0938 5.3,-29.2461 15.92,-39.461 10.61,-10.207 24.27,-15.3125 40.98,-15.3125 8.12,0 17.83,1.8633 29.11,5.5743 l 1.93,0.6172 v 29.5 h -27.28 v 18.0664" /><path
         id="path34"
         style="fill:#122c22;fill-opacity:1;fill-rule:nonzero;stroke:none"
         d="m 1413.65,143.336 h 80.33 V 125.27 h -60.06 V 82.0664 h 58.04 V 63.9023 h -58.04 V 19.8789 h 62 V 1.83203 h -82.27 V 143.336" /><path
         id="path36"
         style="fill:#122c22;fill-opacity:1;fill-rule:nonzero;stroke:none"
         d="m 1613.29,126.09 h -6.1 V 81.3516 h 7.71 c 10.29,0 17.32,0.8789 21.15,2.6367 3.82,1.7578 6.81,4.414 8.93,7.9609 2.14,3.5547 3.19,7.5977 3.19,12.1288 0,4.461 -1.17,8.504 -3.53,12.117 -2.38,3.625 -5.72,6.172 -9.99,7.657 -4.31,1.484 -11.42,2.238 -21.36,2.238 z M 1586.92,1.625 v 141.711 h 35.48 c 14.34,0 25.73,-3.555 34.15,-10.656 8.42,-7.098 12.64,-16.707 12.64,-28.809 0,-8.2499 -2.07,-15.3788 -6.19,-21.4062 -4.13,-6.0156 -10.06,-10.5078 -17.77,-13.496 4.53,-2.9688 8.98,-7.0196 13.3,-12.168 4.33,-5.1445 10.4,-14.0899 18.24,-26.875 4.96,-8.0547 8.91,-14.1094 11.88,-18.1524 l 7.5,-10.1484 h -24.13 l -6.17,9.3359 c -0.21,0.3321 -0.63,0.9102 -1.22,1.7305 l -3.96,5.5742 -6.28,10.3438 -6.79,11.0742 c -4.18,5.8203 -8.03,10.4492 -11.51,13.8867 -3.5,3.4453 -6.65,5.9258 -9.45,7.4414 -2.81,1.5235 -7.53,2.2735 -14.15,2.2735 h -5.3 V 1.625 h -20.27" /><path
         id="path38"
         style="fill:#122c22;fill-opacity:1;fill-rule:nonzero;stroke:none"
         d="m 1809.21,61 -15.42,9.3672 c -9.67,5.8984 -16.55,11.707 -20.65,17.4297 -4.09,5.7031 -6.14,12.2851 -6.14,19.7261 0,11.153 3.87,20.215 11.62,27.18 7.73,6.973 17.79,10.449 30.17,10.449 11.85,0 22.69,-3.312 32.55,-9.961 v -23.027 c -10.18,9.824 -21.19,14.727 -32.94,14.727 -6.63,0 -12.08,-1.536 -16.34,-4.59 -4.26,-3.067 -6.4,-6.992 -6.4,-11.77 0,-4.246 1.57,-8.222 4.72,-11.9333 3.13,-3.6993 8.17,-7.586 15.14,-11.668 l 15.49,-9.1602 c 17.28,-10.3242 25.93,-23.4687 25.93,-39.4257 0,-11.3672 -3.82,-20.5938 -11.42,-27.6954 -7.61,-7.09762 -17.51,-10.65230625 -29.67,-10.65230625 -14,0 -26.74,4.30468625 -38.25,12.91020625 V 38.668 c 10.98,-13.8789 23.66,-20.8125 38.06,-20.8125 6.35,0 11.64,1.7578 15.88,5.3047 4.21,3.5351 6.33,7.957 6.33,13.289 0,8.625 -6.22,16.8086 -18.66,24.5508" /></g></g></svg>